<?xml version="1.0" encoding="UTF-8"?>
<svg id="Capa_2" data-name="Capa 2" xmlns="http://www.w3.org/2000/svg" viewBox="0 0 24 11.48">
  <g id="Capa_1-2" data-name="Capa 1">
    <g>
      <path d="m0,11.48L7.35,2.35h.03c-.3.5-1.28,2.26-1.28,3.62,0,.98,1.17,2.15,1.49,2.49h-.04c-.4-.27-1.49-1.1-2.49-1.1C3.85,7.35,1.29,10.07.05,11.48h-.05,0Z"/>
      <path d="m8.65,0L1.29,9.13h-.03c.3-.5,1.28-2.26,1.28-3.62,0-.98-1.17-2.15-1.49-2.49h.04c.4.27,1.49,1.1,2.49,1.1C4.8,4.13,7.36,1.41,8.6,0h.05Z"/>
      <polygon points="12.69 4.01 11.71 4.01 10.68 5.58 9.66 4.01 8.67 4.01 10.15 6.15 8.52 8.46 9.51 8.46 10.68 6.73 11.85 8.46 12.85 8.46 11.22 6.15 12.69 4.01"/>
      <polygon points="16.06 5.35 15.09 5.35 13.75 6.73 13.75 4.01 12.94 4.01 12.94 8.46 13.75 8.46 13.75 7.03 15.21 8.46 16.25 8.46 14.57 6.85 16.06 5.35"/>
      <path d="m18.28,5.41c-.23-.1-.5-.15-.8-.15-.27,0-.53.05-.76.14s-.44.22-.6.39l.42.49c.12-.12.26-.22.41-.29.15-.07.32-.11.5-.11.24,0,.44.06.58.18.13.11.2.27.21.46h-.73c-.3,0-.57.04-.79.12-.23.08-.4.2-.53.35s-.19.34-.19.55c0,.2.05.37.15.53.1.15.24.27.42.36.18.09.39.13.63.13.26,0,.5-.05.7-.16.14-.08.26-.18.36-.3v.37h.74v-1.91c0-.28-.06-.51-.19-.7-.13-.19-.31-.34-.54-.44h0Zm-.11,2.16c-.08.12-.19.22-.32.28-.13.07-.28.1-.45.1s-.3-.04-.41-.12c-.11-.08-.16-.19-.16-.32,0-.15.07-.27.2-.35.14-.08.31-.12.53-.12h.67v.4s-.04.08-.07.12h0Z"/>
      <rect x="19.22" y="4.01" width=".81" height="4.45"/>
      <path d="m22.73,5.46c-.24-.14-.52-.21-.83-.21s-.6.07-.86.21c-.25.14-.45.34-.6.58s-.22.54-.22.86.08.61.23.86c.15.25.37.44.64.58s.59.21.95.21c.3,0,.57-.05.81-.15.25-.1.45-.24.6-.42l-.43-.49c-.26.29-.57.43-.94.43-.2,0-.38-.04-.54-.12-.16-.08-.28-.2-.37-.35-.05-.09-.09-.19-.11-.3h2.43v-.27c0-.32-.07-.6-.2-.85-.14-.24-.32-.43-.57-.57h0Zm-1.27.55c.13-.08.28-.12.45-.12s.3.04.42.12c.12.08.21.19.28.33.04.09.07.19.09.3h-1.62c.02-.1.05-.2.09-.28.07-.15.17-.27.3-.35h0Z"/>
      <polygon points="23.14 5.35 23.26 5.35 23.26 4.96 23.4 4.96 23.4 4.86 23 4.86 23 4.96 23.14 4.96 23.14 5.35"/>
      <polygon points="23.83 4.86 23.73 5.18 23.64 4.86 23.47 4.86 23.47 5.35 23.58 5.35 23.58 4.99 23.69 5.35 23.78 5.35 23.88 4.98 23.88 5.35 24 5.35 24 4.86 23.83 4.86"/>
    </g>
  </g>
</svg>