<?xml class="text-cs" version="1.0" encoding="UTF-8"?><svg id="Layer_1" xmlns="http://www.w3.org/2000/svg" viewBox="0 0 851.61 866.97"><defs><style>.cls-1{stroke-width:0px;}</style></defs><path class="cls-1" d="M181.58,757.7L596.93,241.75h1.48c-16.72,28.28-72.32,127.78-72.32,204.5,0,55.62,66.15,121.36,84.35,140.65h-2.26c-22.33-15.46-84.42-62.29-140.47-62.29-68.72,0-213.32,153.59-283.51,233.08h-2.61Z"/><path class="cls-1" d="M670.02,109.27L254.68,625.21h-1.48c16.72-28.28,72.32-127.78,72.32-204.5,0-55.62-66.15-121.36-84.35-140.65h2.26c22.33,15.46,84.42,62.29,140.47,62.29,68.72,0,213.32-153.59,283.51-233.08h2.61Z"/></svg>